<svg width="40" height="40" viewBox="0 0 40 40" fill="none" xmlns="http://www.w3.org/2000/svg"><g clip-path="url(#a)" fill="#9A9F45"><path d="M37.905 16.01a.781.781 0 0 0 .056-.16c.43-1.86-.446-3.108-1.2-3.7-.172-1.393-1.486-2.286-2.562-2.716-.11-1.314-.608-2.38-1.486-3.176-1.438-1.303-3.499-1.479-4.506-1.479h-.03c-.982-1.678-3.228-1.755-4.538-1.512a17.84 17.84 0 0 0-2.304-.621.784.784 0 0 0-.304 1.538c.757.15 1.529.363 2.294.634a.78.78 0 0 0 .441.025c.027-.006 2.615-.595 3.182 1.003a.789.789 0 0 0 .815.518c.025-.003 2.495-.22 3.901 1.06.495.45.8 1.032.925 1.763-1.058.05-2.708.423-3.567 2.124a.784.784 0 1 0 1.4.707c.723-1.431 2.52-1.287 2.846-1.248.29.095 2.01.708 1.94 1.759a.784.784 0 0 0 .423.748c.003.002.281.158.523.487.317.431.42.961.31 1.577l-.052.07c-1.218.134-3.048.9-3.298 3.164a.785.785 0 0 0 1.559.172c.158-1.434 1.39-1.72 1.922-1.776 3.436 2.52 1.01 8.4.85 8.776-.85 1.627-1.919 2.46-3.257 2.535-.574-.48-2.076-1.545-4.701-2.174a.785.785 0 1 0-.366 1.525c2.243.537 3.524 1.42 3.996 1.8a2.934 2.934 0 0 1-.086.634c-.558 2.216-3.558 3.379-6.687 2.591a8.072 8.072 0 0 1-1.491-.535.784.784 0 0 0-1.118.64 10.632 10.632 0 0 0 .129 2.918l-2.06.342a30.454 30.454 0 0 1-.271-1.073c-.46-1.906-1.125-4.655-3.08-6.91a30.31 30.31 0 0 1 4.668-.78.784.784 0 1 0-.128-1.563c-1.95.16-4.04.55-6.214 1.159-1.994.27-3.39.162-3.546.148-3.4-.51-4.349-2.565-4.128-4.171a.784.784 0 0 0-.963-.869l-.569.14c-.991-.05-3.47-.434-4.585-1.733-.484-.564-.67-1.246-.566-2.084a.784.784 0 0 0-.413-.79c-.003-.001-.337-.202-.42-.557-.097-.422.186-.927.441-1.277a.785.785 0 0 0 .103-.731c-.007-.017-.585-1.685.075-3.07.368-.77 1.072-1.339 2.094-1.689a.777.777 0 0 0 .528-.675c0-.01.1-1.005.825-1.545.5-.373 1.222-.468 2.146-.284a.786.786 0 0 0 .928-.645c.003-.017.354-1.65 3.414-1.707.464.634 1.488 2.299.728 3.79a.785.785 0 0 0 1.398.713 4.044 4.044 0 0 0 .44-1.65c.423-.18 1.082-.373 1.608-.216.343.101.605.35.805.758a.784.784 0 1 0 1.41-.687c-.392-.803-1.003-1.348-1.768-1.575-.815-.242-1.645-.088-2.258.12a7.035 7.035 0 0 0-.81-1.757c.369-.16.867-.348 1.482-.51a.784.784 0 1 0-.399-1.516c-1.24.325-2.089.749-2.466.959-3.176 0-4.404 1.388-4.866 2.287-1.095-.104-2.017.123-2.748.676-.853.645-1.202 1.573-1.342 2.146-1.205.505-2.067 1.288-2.565 2.332C.07 12.702.348 14.332.54 15.07c-.48.774-.64 1.521-.477 2.224.138.597.478 1.011.766 1.268-.037 1.087.289 2.037.97 2.831 1.69 1.967 5.057 2.242 5.722 2.277.171 2.188 1.836 4.346 5.504 4.889a12.066 12.066 0 0 0 1.16.048c.624 0 1.48-.034 2.495-.157 2.164 2.045 2.835 4.82 3.329 6.868.18.745.335 1.39.538 1.886a.784.784 0 0 0 .855.477l3.549-.591a.785.785 0 0 0 .624-.992 8.23 8.23 0 0 1-.314-2.123c.23.076.464.145.7.204 1.882.474 3.798.37 5.395-.29 1.678-.694 2.813-1.915 3.197-3.439a4.5 4.5 0 0 0 .111-.64c1.34-.187 2.95-.984 4.186-3.364a15.047 15.047 0 0 0 1.087-4.146c.29-2.734-.411-4.89-2.031-6.29z"/><path d="M18.244 13.705c.008.045.212 1.126.961 2.187.18.253.398.517.663.77-.14.806-1.373 1.247-1.402 1.257a.785.785 0 0 0 .504 1.486c.725-.245 1.778-.854 2.244-1.832.61.275 1.345.454 2.228.454l.17-.003a.784.784 0 0 0-.02-1.568h-.02c-3.146.08-3.76-2.899-3.786-3.036a.784.784 0 0 0-1.543.285zm9.561 6.886c1.362-2.379.824-4.219.134-5.344a5.865 5.865 0 0 0-1.826-1.838.783.783 0 0 0-1.07.277.786.786 0 0 0 .273 1.073c.008.005.795.484 1.313 1.354.653 1.099.59 2.343-.185 3.7a.784.784 0 0 0 1.361.778zm8.314 1.834a.784.784 0 1 0-.912-1.277c-.765.546-1.46.752-2.068.61-.916-.213-1.436-1.152-1.448-1.174a.784.784 0 0 0-1.388.729c.03.059.71 1.334 2.067 1.847-.243.96-.397 2.652 1.02 3.838a.781.781 0 0 0 1.105-.098.785.785 0 0 0-.098-1.105c-.866-.724-.623-1.912-.452-2.45.708-.086 1.436-.393 2.174-.92zm-23.091-5.037a.784.784 0 0 0-1.556.197c.136 1.073-.706 1.855-1.204 2.217-1.256-.621-2.661-.385-2.731-.372a.783.783 0 0 0-.635.905.786.786 0 0 0 .904.64c.014-.002 1.338-.215 2.13.472.452.392.671 1.048.65 1.95a.785.785 0 0 0 .766.802h.019a.784.784 0 0 0 .783-.766c.025-1.055-.2-1.923-.668-2.592.769-.638 1.752-1.797 1.542-3.453zm-7.375-4.112a1.755 1.755 0 0 1-.378.552c-.425.434-.96.595-.98.601a.784.784 0 0 0 .415 1.513 4.088 4.088 0 0 0 1.795-1.134 2.99 2.99 0 0 0 1.813.591 3.6 3.6 0 0 0 .576-.047 4.564 4.564 0 0 0 1.627-.61.784.784 0 1 0-.854-1.316c-.004.003-.46.287-1.023.378-.565.091-1.011-.038-1.379-.403.178-.676.156-1.429-.067-2.25a.784.784 0 1 0-1.513.41c.18.665.175 1.22-.017 1.68l-.015.035zm18.354-6.672c-1.325-.786-2.847-.38-2.911-.362a.784.784 0 0 0 .416 1.512c.01-.002.95-.243 1.695.2.443.262.75.742.91 1.426a.785.785 0 0 0 1.527-.36c-.262-1.114-.813-1.927-1.637-2.416zm-2.841 14.788c-.558.96-1.366 1.474-2.4 1.528a4.02 4.02 0 0 1-1.53-.232.784.784 0 0 0-.597 1.451 5.441 5.441 0 0 0 2.139.35c1.12-.042 2.678-.477 3.744-2.308a.784.784 0 1 0-1.356-.79zm5.679 4.6a.789.789 0 0 0-.855-.322.791.791 0 0 0-.578.68.79.79 0 0 0 .445.786.79.79 0 0 0 .871-.136.79.79 0 0 0 .117-1.008zM17.358 3.426c.125.302.436.5.762.484a.79.79 0 0 0 .705-.532.79.79 0 0 0-.245-.858.79.79 0 0 0-.932-.046.793.793 0 0 0-.29.952z"/></g><defs><clipPath id="a"><path fill="#fff" d="M0 0h40v40H0z"/></clipPath></defs></svg>