<svg width="40" height="40" viewBox="0 0 40 40" fill="none" xmlns="http://www.w3.org/2000/svg"><g clip-path="url(#a)" fill="#9A9F45"><path d="M13.609 15.899a.59.59 0 0 0 .846-.035l2.817-3.198a.586.586 0 0 0-.88-.774L13.98 14.63l-1.538-1.48a.586.586 0 0 0-.813.845l1.98 1.904zM19.18 14.463h8.28a.586.586 0 1 0 0-1.171h-8.28a.586.586 0 1 0 0 1.171zM11.629 20.888l1.98 1.904a.59.59 0 0 0 .845-.035l2.82-3.19a.586.586 0 1 0-.877-.776l-2.417 2.733-1.539-1.48a.586.586 0 1 0-.812.844zM19.18 21.328h8.28a.586.586 0 1 0 0-1.172h-8.28a.586.586 0 1 0 0 1.172zM27.46 27.276h-1.366a.586.586 0 1 0 0 1.172h1.367a.586.586 0 1 0 0-1.172zM19.18 28.448h4.18a.586.586 0 0 0 0-1.172h-4.18a.586.586 0 1 0 0 1.172zM12.54 30.245h3.593a.586.586 0 0 0 .586-.586v-3.594a.586.586 0 0 0-.586-.586h-3.594a.586.586 0 0 0-.586.586v3.594c0 .323.262.586.586.586zm.585-3.594h2.422v2.422h-2.422V26.65z"/><path d="M33.789 18.945a.586.586 0 0 0 .586-.586V4.336c0-.754-.613-1.367-1.367-1.367l-10.005-.002a3.013 3.013 0 0 0-.954-2.16 2.977 2.977 0 0 0-2.26-.8c-1.536.1-2.785 1.422-2.792 2.96L6.992 2.97c-.754 0-1.367.613-1.367 1.367v34.297c0 .754.613 1.367 1.367 1.367h26.016c.754 0 1.367-.613 1.367-1.367v-17.54a.586.586 0 1 0-1.172 0v17.54a.196.196 0 0 1-.195.195H6.992a.195.195 0 0 1-.195-.195V4.336c0-.108.087-.195.195-.195h5.731v1.172H8.555a.586.586 0 0 0-.586.586V37.07c0 .324.262.586.586.586h2.617a.586.586 0 1 0 0-1.172H9.14v-30h3.582v1.323c0 .538.438.976.977.976h7.912a.586.586 0 1 0 0-1.172h-7.717v-3.47h3.751a.588.588 0 0 0 .57-.72c-.269-1.065.554-2.184 1.653-2.245 1.195-.118 2.218 1.086 1.914 2.244a.59.59 0 0 0 .57.72h3.752v3.471h-1.759a.586.586 0 1 0 0 1.172H26.3a.978.978 0 0 0 .976-.976V6.484h3.583v23.75h-5.664a.586.586 0 0 0-.586.586v5.664H13.906a.586.586 0 1 0 0 1.172h11.29a.592.592 0 0 0 .414-.171l6.25-6.25a.593.593 0 0 0 .171-.415V5.9a.586.586 0 0 0-.586-.586h-4.169V4.14h5.732c.107 0 .195.087.195.195v14.023c0 .324.262.586.586.586zm-8.008 16.71v-4.249h4.25l-4.25 4.25z"/></g><defs><clipPath id="a"><path fill="#fff" d="M0 0h40v40H0z"/></clipPath></defs></svg>