<svg width="38" height="38" viewBox="0 0 38 38" fill="none" xmlns="http://www.w3.org/2000/svg"><g clip-path="url(#a)" fill="#9A9F45"><path d="M.931 23.68c.209.145.428.272.658.38.274.14.732.375.765.54.04.216.014.44-.075.64-.094.203-.193.377-.278.528-.233.41-.62 1.095-.035 1.574.137.127.373.31.589.475-.159.277-.23.596-.206.914.033.25.167.474.371.62.143.102.295.19.444.276.372.212.518.311.57.507.034.257.01.52-.07.767a5.936 5.936 0 0 0-.097.497c-.063.578.01 1.162.214 1.706a2.373 2.373 0 0 0 2.244 1.729c.174 0 .347-.019.517-.054a48.03 48.03 0 0 0 5.34-1.598c1.426.837 2.328 3.383 2.563 4.339.07.282.324.48.615.48l15.897-.045a.633.633 0 0 0 .603-.823 4.894 4.894 0 0 0-.642-1.203 5.887 5.887 0 0 1-.41-.684 12.047 12.047 0 0 1-.715-1.803 21.347 21.347 0 0 1-.75-3.747 10.722 10.722 0 0 1 .833-5.561 14.155 14.155 0 0 1 1.72-2.72c.38-.512.774-1.044 1.128-1.602a9.796 9.796 0 0 0 1.305-3.084.633.633 0 0 0-1.234-.286 8.55 8.55 0 0 1-1.14 2.691c-.328.52-.708 1.032-1.076 1.527a15.31 15.31 0 0 0-1.864 2.968 11.98 11.98 0 0 0-.929 6.219 22.47 22.47 0 0 0 .799 3.973c.208.681.47 1.344.786 1.983.144.286.308.56.49.824l.043.063-14.365.043a10.1 10.1 0 0 0-2.23-4.044l.57-.199c.426-.148.747-.26.913-.316 2.712-.865 4.068-2.1 4.03-3.674a.622.622 0 0 0-.646-.615.633.633 0 0 0-.618.648c.015.648-.519 1.597-3.151 2.435a44.64 44.64 0 0 0-.945.325c-.47.164-1.067.373-1.726.597h-.004a49.333 49.333 0 0 1-5.443 1.647c-.59.11-1.163-.26-1.305-.843a2.533 2.533 0 0 1-.156-1.123c.018-.126.048-.26.077-.389.135-.442.157-.91.064-1.363a2.1 2.1 0 0 0-1.17-1.293l-.136-.078c.069-.138.15-.27.245-.392a.633.633 0 0 0-.122-.902c-.152-.112-.507-.38-.773-.592.03-.055.063-.116.096-.17.099-.175.213-.38.323-.613.2-.443.26-.938.169-1.416-.152-.773-.892-1.152-1.432-1.428a3.654 3.654 0 0 1-.902-.61c0-.097.103-.33.585-.917A25.553 25.553 0 0 0 4.749 16.7c.15-.261.233-.555.245-.856a2.217 2.217 0 0 0-.93-1.583c-.256-.236-.498-.457-.525-.644.005-.155.04-.308.102-.45.103-.272.223-.538.342-.804.267-.55.48-1.126.634-1.717.145-.71.335-1.41.57-2.095.499-1.378 1.272-2.641 2.272-3.712 1.21-1.283 3.117-2.19 5.676-2.698a41.156 41.156 0 0 1 5.942-.856c.672-.035 1.346-.02 2.017.043a.635.635 0 0 0 .118-1.264A15.405 15.405 0 0 0 19.01.019c-2.06.143-4.108.437-6.125.88-2.856.57-4.931 1.57-6.348 3.068a12.114 12.114 0 0 0-2.54 4.144 18.516 18.516 0 0 0-.624 2.289c-.136.497-.318.98-.544 1.444-.126.288-.257.576-.37.876-.145.334-.204.7-.173 1.063.13.565.46 1.065.926 1.41.31.284.515.484.518.659-.023.096-.06.189-.108.275A24.444 24.444 0 0 1 .851 20.63c-.459.559-.94 1.21-.84 1.863.135.503.467.93.92 1.187z"/><path d="M7.561 9.43A8.344 8.344 0 0 1 9.3 6.58c.844-.894 2.304-1.552 4.34-1.957a.633.633 0 1 0-.247-1.242c-2.298.457-3.985 1.24-5.013 2.327a9.601 9.601 0 0 0-2.006 3.285 16.104 16.104 0 0 0-.52 1.933l1.236.274c.122-.599.28-1.19.472-1.77zM20.811 3.547l-.38 1.895c-.366.12-.723.268-1.067.443L17.756 4.81a1.267 1.267 0 0 0-1.59.165l-1.052 1.05a1.267 1.267 0 0 0-.167 1.606l1.072 1.6c-.175.344-.323.7-.444 1.067l-1.892.38c-.591.12-1.017.64-1.016 1.243v1.494c0 .603.423 1.122 1.013 1.242l1.895.38c.12.367.269.723.444 1.067l-1.077 1.608a1.267 1.267 0 0 0 .165 1.59l1.052 1.052a1.27 1.27 0 0 0 1.604.167l1.6-1.072c.345.175.701.323 1.067.443l.38 1.893c.12.591.64 1.017 1.243 1.016h1.495c.602 0 1.121-.423 1.242-1.013l.38-1.895c.366-.12.722-.268 1.066-.443l1.608 1.076c.503.33 1.167.26 1.591-.165l1.05-1.05c.434-.426.505-1.1.168-1.606l-1.072-1.6c.175-.344.323-.7.444-1.067l1.892-.38c.376-.076.697-.319.872-.66l.955.64a1.14 1.14 0 0 0 1.424-.158l.842-.843a1.15 1.15 0 0 0 .147-1.44l-.817-1.223c.119-.238.221-.484.307-.736l1.433-.285A1.14 1.14 0 0 0 38 8.829v-1.19a1.14 1.14 0 0 0-.915-1.122l-1.44-.287a5.86 5.86 0 0 0-.305-.736l.83-1.237a1.144 1.144 0 0 0-.158-1.424l-.843-.842a1.15 1.15 0 0 0-1.44-.148l-1.222.817a5.959 5.959 0 0 0-.736-.306L31.485.92A1.14 1.14 0 0 0 30.362 0h-1.19a1.14 1.14 0 0 0-1.122.915l-.287 1.44a5.86 5.86 0 0 0-.736.307l-1.237-.83a1.146 1.146 0 0 0-1.423.159l-.57.57a1.299 1.299 0 0 0-.25-.027h-1.494c-.602 0-1.122.423-1.242 1.013zm9.682 2.483l-.295-.296a2.52 2.52 0 0 1 .787 4.754l-.962-.19a7.543 7.543 0 0 0-.443-1.066l1.077-1.608a1.267 1.267 0 0 0-.164-1.593V6.03zm-5.3-3.076l1.447.973a.633.633 0 0 0 .677.018 4.634 4.634 0 0 1 1.159-.484.633.633 0 0 0 .456-.488l.34-1.706h.99l.34 1.71a.633.633 0 0 0 .456.488c.407.108.797.27 1.16.484.21.124.473.115.676-.022l1.448-.972.703.703-.971 1.449a.633.633 0 0 0-.019.676c.214.363.377.753.485 1.16a.633.633 0 0 0 .488.455l1.71.34v.99l-1.707.34a.633.633 0 0 0-.488.457 4.64 4.64 0 0 1-.484 1.159.633.633 0 0 0 .018.676l.971 1.448-.703.703-1.411-.944v-.647c0-.371-.162-.724-.444-.965a3.791 3.791 0 0 0-2.64-6.521 3.665 3.665 0 0 0-1.127.185 1.284 1.284 0 0 0-.887.195l-1.6 1.071a7.543 7.543 0 0 0-1.066-.443l-.38-1.893a1.16 1.16 0 0 0-.043-.149l.445-.446zm-3.596 3.112l.456-2.266h1.495l.455 2.268a.633.633 0 0 0 .455.486 6.24 6.24 0 0 1 1.496.62c.209.122.469.114.67-.02L28.54 5.87l1.062 1.056-1.286 1.918a.633.633 0 0 0-.021.67c.27.47.48.973.62 1.496a.633.633 0 0 0 .487.455l2.265.453v1.495l-2.267.456a.633.633 0 0 0-.487.455 6.239 6.239 0 0 1-.62 1.495.633.633 0 0 0 .021.67l1.282 1.917-1.056 1.061-1.918-1.285a.633.633 0 0 0-.67-.022c-.47.271-.972.48-1.496.62a.633.633 0 0 0-.455.487l-.453 2.266h-1.495l-.455-2.268a.633.633 0 0 0-.456-.486 6.241 6.241 0 0 1-1.495-.62.633.633 0 0 0-.67.02l-1.917 1.283L16 18.407l1.286-1.919a.633.633 0 0 0 .021-.67 6.239 6.239 0 0 1-.62-1.495.633.633 0 0 0-.487-.455l-2.265-.454V11.92l2.267-.456a.633.633 0 0 0 .486-.455c.141-.523.35-1.026.621-1.495a.633.633 0 0 0-.021-.67l-1.282-1.917 1.055-1.061L18.98 7.15c.2.135.46.143.67.022.47-.271.972-.48 1.495-.62a.633.633 0 0 0 .453-.487z"/><path d="M22.8 17.1a4.433 4.433 0 1 0 0-8.867 4.433 4.433 0 0 0 0 8.867zm0-7.6a3.167 3.167 0 1 1 0 6.333 3.167 3.167 0 0 1 0-6.333z"/><path d="M22.8 13.3a.633.633 0 1 0 0-1.267.633.633 0 0 0 0 1.267zM5.7 13.934a.633.633 0 1 0 0-1.267.633.633 0 0 0 0 1.267z"/></g><defs><clipPath id="a"><path fill="#fff" d="M0 0h38v38H0z"/></clipPath></defs></svg>