<svg width="40" height="40" viewBox="0 0 40 40" fill="none" xmlns="http://www.w3.org/2000/svg"><g clip-path="url(#a)" fill="#9A9F45"><path d="M15.047 15.627v1.562a.586.586 0 1 0 1.172 0v-1.562a.586.586 0 1 0-1.172 0zM17.307 13.43a.586.586 0 0 0-.317-.766c-.81-.347-1.906-.368-2.78-.005a.586.586 0 0 0 .212 1.132c.579-.172 1.405-.373 2.12-.045a.586.586 0 0 0 .765-.317zM27.72 35.53a.586.586 0 0 0-.721.407l-.324 1.172c-.259.743-.55 1.427-.867 2.034a.586.586 0 1 0 1.038.542 16.332 16.332 0 0 0 .953-2.246l.33-1.189a.586.586 0 0 0-.409-.72z"/><path d="M38.54 39.312l-.724-4.072a7.203 7.203 0 0 0-5.036-5.701l-2.794-.843a1.524 1.524 0 0 0-1.75.681L26.4 28.82l-.32-2.755c1.124-.887 2.221-2.054 3.239-3.469.486-.674.842-1.277 1.103-1.883a3.721 3.721 0 0 0 3.522-3.717c0-1.218-.764-2.26-1.836-2.671.903-1.028 1.372-2.67 1.267-4.634a11.165 11.165 0 0 0-1.861-5.572C30.238 2.226 28.457.944 26.367.41 24.813.009 23.133-.01 21.52.002a.978.978 0 0 0-.974.977v2.618a.586.586 0 1 0 1.171 0V1.174c1.558-.004 2.913.002 4.359.371 3.964 1.013 5.955 4.965 6.128 8.207.094 1.765-.346 3.222-1.156 3.98-.331-1.75-1.515-2.724-2.44-3.328-1.32-.863-2.63-.906-4.018-.953-.913-.03-1.854-.063-2.873-.334V6.34a.586.586 0 1 0-1.172 0v33.075a.586.586 0 1 0 1.172 0v-5.466c2.127-.13 3.329-1.075 3.972-1.876a3.666 3.666 0 0 0 .784-2.006l1.515.461a33.264 33.264 0 0 1-.367 2.827.586.586 0 1 0 1.154.203c.244-1.394.364-2.633.42-3.427.01-.147.1-.23.152-.265a.344.344 0 0 1 .3-.047l2.793.843a6.037 6.037 0 0 1 4.22 4.78l.724 4.075a.586.586 0 0 0 1.154-.204zm-5.768-22.317c0 1.2-.83 2.208-1.943 2.478.258-1.105.303-2.368.31-4.164a1.685 1.685 0 0 1 1.633 1.686zm-8.22-6.373c1.272.043 2.371.08 3.417.763 1.382.903 1.998 1.933 1.998 3.337 0 3.855-.068 5.061-1.6 7.189-2.093 2.91-4.486 4.674-6.649 4.93v-3.338c.407 0 1.006.09 1.383.571a.585.585 0 1 0 .921-.724c-.673-.857-1.649-1.02-2.304-1.02v-1.738a3.54 3.54 0 0 0 .584-.141.586.586 0 1 0-.372-1.111c-.07.023-.14.042-.212.059v-9.075c1.032.238 1.98.27 2.834.298zm.224 20.716c-.69.86-1.717 1.34-3.058 1.436v-4.755c1.07-.104 2.175-.51 3.272-1.188l.307 2.643a2.525 2.525 0 0 1-.52 1.864z"/><path d="M23.246 15.723l.472.22v1.246a.586.586 0 1 0 1.172 0v-.7l.055.026a.586.586 0 0 0 .495-1.062l-1.699-.792a.586.586 0 1 0-.495 1.062zM18.994.305a.968.968 0 0 0-.844-.17c-1.52.4-2.966 1.252-4.206 2.473a4.788 4.788 0 0 0-1.615-.287c-2.375 0-4.423 1.362-5.485 3.65a.586.586 0 0 0 1.063.493c.864-1.863 2.516-2.97 4.424-2.97h.037c.415.002.798.073 1.164.213l.307 2.992c-.529 1.634-1.144 2.872-2.373 3.597-1.563.922-2.396 2.112-2.582 3.707-1.072-.543-1.657-2.633-1.657-4.141 0-.319.015-.633.043-.934a.586.586 0 1 0-1.167-.11c-.031.338-.047.689-.047 1.044 0 1.538.484 3.503 1.526 4.602a2.862 2.862 0 0 0-1.526 2.531 3.721 3.721 0 0 0 3.46 3.712c.258.608.613 1.209 1.101 1.888l.064.088a.585.585 0 1 0 .948-.689l-.06-.083c-1.487-2.066-1.56-3.194-1.56-7.1-.015-1.51.612-2.673 2.052-3.506 1.382-.815 2.117-2.115 2.633-3.494 1.153 1.024 2.31 1.744 3.51 2.187v9.398a2.33 2.33 0 0 1-.198-.056.586.586 0 1 0-.372 1.11c.186.063.377.11.57.14v1.844c-.37-.005-.917-.112-1.259-.641a.586.586 0 1 0-.984.635c.631.979 1.6 1.17 2.242 1.175v3.237c-1.565-.188-3.24-1.156-4.88-2.83a.586.586 0 1 0-.838.82c.472.482.95.91 1.43 1.287l-.318 2.725-1.825.551a1.52 1.52 0 0 0-.456-.493 1.514 1.514 0 0 0-1.303-.204l-2.793.843c-1.086.293-2.506 1.185-3.333 2.132a7.254 7.254 0 0 0-1.703 3.566l-.724 4.075a.586.586 0 0 0 1.154.204l.724-4.077a6.085 6.085 0 0 1 1.425-2.989c.747-.784 1.612-1.428 2.795-1.79l2.794-.842a.345.345 0 0 1 .3.047.347.347 0 0 1 .151.266c.313 4.373 2.242 9.291 2.324 9.498a.586.586 0 1 0 1.09-.43c-.019-.048-1.796-4.583-2.202-8.655l1.513-.457c.06.727.331 1.424.782 1.985.635.792 1.815 1.722 3.893 1.87v5.472a.586.586 0 1 0 1.172 0V1.079a.97.97 0 0 0-.381-.774zM7.227 16.995c0-.907.717-1.649 1.61-1.686.006 1.816.047 3.073.285 4.152a2.552 2.552 0 0 1-1.895-2.466zm7.768-10.504l-.304-2.973c1.044-1.05 2.249-1.799 3.512-2.181v7.399c-1.08-.47-2.137-1.21-3.208-2.245zm.228 24.847a2.524 2.524 0 0 1-.52-1.865l.303-2.596c1.072.654 2.148 1.04 3.197 1.141v4.75c-1.302-.108-2.303-.587-2.98-1.43z"/></g><defs><clipPath id="a"><path fill="#fff" d="M0 0h40v40H0z"/></clipPath></defs></svg>