<svg width="38" height="38" viewBox="0 0 38 38" fill="none" xmlns="http://www.w3.org/2000/svg"><g clip-path="url(#a)" fill="#9A9F45"><path d="M.932 23.68c.208.145.428.272.658.38.274.14.732.374.764.539a1.1 1.1 0 0 1-.074.641 7.048 7.048 0 0 1-.279.527c-.232.41-.62 1.096-.035 1.574.137.127.373.31.589.475-.159.278-.23.596-.206.914.033.25.17.476.375.623.14.1.291.185.44.27.374.213.52.313.57.51.034.256.013.515-.064.76-.037.17-.074.34-.095.508a3.769 3.769 0 0 0 .208 1.706 2.373 2.373 0 0 0 2.24 1.726c.175-.001.349-.02.52-.056a48.053 48.053 0 0 0 5.34-1.598c1.426.838 2.328 3.384 2.562 4.34.07.282.324.48.615.48l15.897-.044a.633.633 0 0 0 .603-.823 4.886 4.886 0 0 0-.642-1.204 5.93 5.93 0 0 1-.41-.685 11.969 11.969 0 0 1-.714-1.801 21.372 21.372 0 0 1-.744-3.705.634.634 0 1 0-1.256.154c.146 1.33.41 2.644.79 3.927.208.68.47 1.344.785 1.982.145.287.309.564.491.828l.043.063-14.364.041a10.09 10.09 0 0 0-2.23-4.044l.57-.2c.425-.148.745-.26.91-.312 2.712-.858 4.069-2.094 4.032-3.673a.617.617 0 0 0-.645-.618.633.633 0 0 0-.618.648c.015.651-.518 1.602-3.151 2.435-.172.055-.502.17-.941.323-.47.165-1.07.374-1.73.598h-.004a49.302 49.302 0 0 1-5.446 1.647 1.121 1.121 0 0 1-1.304-.844 2.518 2.518 0 0 1-.149-1.13c.017-.133.047-.265.076-.397.13-.438.148-.901.055-1.348a2.104 2.104 0 0 0-1.172-1.295l-.132-.075c.069-.139.15-.27.244-.392a.633.633 0 0 0-.12-.902 24.93 24.93 0 0 1-.773-.591c.03-.055.063-.116.095-.171.099-.174.212-.377.323-.611.2-.444.26-.94.17-1.418-.153-.772-.892-1.151-1.433-1.427a3.597 3.597 0 0 1-.52-.302 2.691 2.691 0 0 1-.38-.31c0-.095.102-.327.585-.915a25.477 25.477 0 0 0 2.899-4.709 1.87 1.87 0 0 0 .245-.856 2.217 2.217 0 0 0-.925-1.584c-.257-.235-.498-.456-.526-.66a1.15 1.15 0 0 1 .099-.436c.103-.272.222-.538.342-.804.26-.536.467-1.095.62-1.67l.062-.27c.135-.633.308-1.258.518-1.87.5-1.378 1.273-2.64 2.273-3.712 1.211-1.282 3.118-2.189 5.677-2.697a41.163 41.163 0 0 1 5.942-.856c.997-.054 1.997.002 2.981.169a.633.633 0 0 0 .217-1.248A14.71 14.71 0 0 0 19.01.019a42.27 42.27 0 0 0-6.126.879c-2.856.57-4.931 1.571-6.348 3.068a12.134 12.134 0 0 0-2.54 4.144 17.178 17.178 0 0 0-.561 2.023l-.064.267c-.135.496-.316.98-.541 1.442-.127.29-.259.578-.372.877a2.121 2.121 0 0 0-.168 1.06c.128.567.456 1.069.924 1.414.31.284.513.484.515.659-.023.096-.06.189-.108.275a24.433 24.433 0 0 1-2.774 4.507c-.458.558-.938 1.209-.836 1.86.135.503.466.93.92 1.186z"/><path d="M7.072 11.269l.064-.282c.11-.527.252-1.047.422-1.557a8.345 8.345 0 0 1 1.738-2.85 6.63 6.63 0 0 1 2.92-1.603.633.633 0 1 0-.37-1.212 7.843 7.843 0 0 0-3.47 1.945 9.615 9.615 0 0 0-2.004 3.283c-.19.562-.347 1.135-.47 1.716l-.063.274a.633.633 0 1 0 1.233.286zM5.7 13.933a.633.633 0 1 0 0-1.267.633.633 0 0 0 0 1.267zM17.1 12.8a8.68 8.68 0 0 0 2.14 5.883c.448.465.935.889 1.457 1.267.927.716 1.804 1.4 2.038 2.353a1.9 1.9 0 0 0-1.201 1.763v1.267a1.9 1.9 0 0 0 1.266 1.784v.116a2.533 2.533 0 0 0 5.067 0v-.116a1.9 1.9 0 0 0 1.267-1.784v-1.267a1.9 1.9 0 0 0-1.204-1.763c.233-.95 1.111-1.637 2.038-2.353a10.92 10.92 0 0 0 1.456-1.267 8.685 8.685 0 0 0 2.143-5.884 8.4 8.4 0 0 0-8.233-8.366A8.4 8.4 0 0 0 17.1 12.8zm6.334 1.133H22.8a.633.633 0 1 1 .634-.633v.633zm2.533 8.233H24.7V15.2h1.267v6.966zm-.633 6.334c-.7 0-1.267-.567-1.267-1.267H26.6c0 .7-.567 1.267-1.266 1.267zm2.533-3.167c0 .35-.284.633-.633.633h-3.8a.633.633 0 0 1-.634-.633v-1.267c0-.35.284-.633.634-.633h3.8c.35 0 .633.284.633.633v1.267zM32.3 12.82a7.406 7.406 0 0 1-1.813 5.015c-.397.408-.829.78-1.29 1.113a8.868 8.868 0 0 0-1.963 1.874V15.2h.633a1.9 1.9 0 1 0-1.9-1.9v.633H24.7V13.3a1.9 1.9 0 1 0-1.9 1.9h.634v5.621a8.855 8.855 0 0 0-1.96-1.873 9.917 9.917 0 0 1-1.291-1.114 7.402 7.402 0 0 1-1.816-5.015c.063-3.86 3.25-7.12 6.967-7.12 3.716 0 6.906 3.26 6.966 7.12zm-5.066 1.114V13.3a.633.633 0 1 1 .633.633h-.633zM35.467 13.3h1.9a.633.633 0 0 0 0-1.267h-1.9a.633.633 0 0 0 0 1.267zM32.498 6.135c.168 0 .33-.067.449-.186l1.343-1.343a.633.633 0 1 0-.896-.896L32.05 5.053a.633.633 0 0 0 .448 1.082zM25.334 3.167c.35 0 .633-.284.633-.634v-1.9a.633.633 0 0 0-1.267 0v1.9c0 .35.284.634.634.634zM18.616 5.95a.633.633 0 0 0 0-.897L17.273 3.71a.633.633 0 1 0-.896.896l1.343 1.343a.633.633 0 0 0 .896 0zM13.3 12.033a.633.633 0 0 0 0 1.267h1.9a.633.633 0 0 0 0-1.267h-1.9z"/></g><defs><clipPath id="a"><path fill="#fff" d="M0 0h38v38H0z"/></clipPath></defs></svg>