<svg width="38" height="38" viewBox="0 0 38 38" fill="none" xmlns="http://www.w3.org/2000/svg"><g clip-path="url(#a)" fill="#9A9F45"><path d="M29.859 7.974c.65-2.427.127-4.578-1.514-6.22A5.96 5.96 0 0 0 24.1 0a5.96 5.96 0 0 0-4.245 1.754 1.166 1.166 0 0 1-.87.366 1.22 1.22 0 0 1-.837-.366A5.96 5.96 0 0 0 13.901 0a5.96 5.96 0 0 0-4.246 1.754c-1.64 1.642-2.164 3.793-1.513 6.22 1.408 5.252 7.849 10.542 10.666 11.297a.741.741 0 0 0 .384 0c2.818-.755 9.26-6.045 10.667-11.297zm-5.817 6.243c-2.027 1.976-3.977 3.198-5.042 3.562-1.064-.364-3.014-1.586-5.042-3.562C11.683 12 10.127 9.647 9.575 7.59c-.512-1.913-.132-3.523 1.13-4.787a4.486 4.486 0 0 1 3.196-1.319c1.212 0 2.346.469 3.196 1.319.502.502 1.16.786 1.855.801a2.663 2.663 0 0 0 1.952-.801 4.485 4.485 0 0 1 3.195-1.319c1.212 0 2.347.469 3.196 1.319 1.263 1.264 1.643 2.874 1.13 4.787-.551 2.057-2.108 4.41-4.383 6.627zM34.688 7.513l-.154-.003a3.015 3.015 0 0 0-2.167.85 3.022 3.022 0 0 0-.935 2.133l-.142 7.243c-.419.014-.851.168-1.305.462-.671.437-1.418 1.183-2.45 2.215-.477.476-1.017 1.015-1.635 1.609-3.432 3.3-3.733 5.835-3.802 9.325v5.911c0 .41.332.742.742.742h6.938c.41 0 .742-.332.742-.742v-5.814l4.04-4.58c1.03-1.158 1.51-2.523 1.51-4.299V8.935c0-.769-.62-1.407-1.382-1.422zm-.102 15.052c0 1.41-.35 2.43-1.136 3.314l-4.23 4.794a.742.742 0 0 0-.185.49v5.353h-5.453v-5.147c.063-3.198.26-5.31 3.347-8.277.628-.604 1.173-1.149 1.654-1.63.97-.968 1.67-1.667 2.211-2.02.493-.32.665-.23.825-.133a.447.447 0 0 0 .019.011c.04.025.121.09.147.323.108.968-.899 3.044-2.771 4.845a.742.742 0 0 0 1.029 1.07c2.072-1.993 3.395-4.492 3.217-6.08-.059-.532-.265-.895-.498-1.14l.153-7.816c.008-.414.179-.801.48-1.091.302-.29.694-.446 1.109-.437l.082.002v13.57zM14.36 24.726a.742.742 0 1 0-1.26.784c1.152 1.851 1.273 3.597 1.318 5.86v5.146H8.965v-5.352a.742.742 0 0 0-.186-.491l-4.23-4.797c-.785-.88-1.134-1.902-1.134-3.31V8.995l.081-.002c.413-.009.807.147 1.109.437.301.29.472.677.48 1.091l.153 7.816c-.232.245-.439.608-.498 1.14-.178 1.588 1.146 4.088 3.218 6.08a.742.742 0 0 0 1.029-1.07c-1.873-1.8-2.88-3.877-2.772-4.845.026-.233.108-.297.147-.322a.714.714 0 0 0 .017-.01c.377-.222.788-.067 2.31 1.429a.742.742 0 1 0 1.041-1.06c-.96-.942-1.944-1.908-3.02-1.944l-.141-7.243a3.021 3.021 0 0 0-.935-2.132 3.025 3.025 0 0 0-2.167-.851l-.155.003A1.424 1.424 0 0 0 1.93 8.936v13.63c0 1.775.48 3.14 1.508 4.295l4.043 4.584v5.813c0 .41.332.742.742.742h6.937c.41 0 .742-.332.742-.742v-5.896-.014c-.047-2.425-.191-4.452-1.542-6.622z"/><path d="M12.328 22.557a.742.742 0 1 0-1.485 0 .742.742 0 0 0 1.485 0z"/></g><defs><clipPath id="a"><path fill="#fff" d="M0 0h38v38H0z"/></clipPath></defs></svg>